<svg height="45pt" viewBox="0 0 45 45" width="45pt" xmlns="http://www.w3.org/2000/svg" xmlns:xlink="http://www.w3.org/1999/xlink"><clipPath id="a"><path d="m20 9h22.238281v26h-22.238281zm0 0"/></clipPath><clipPath id="b"><path d="m2.640625 0h21.359375v24h-21.359375zm0 0"/></clipPath><clipPath id="c"><path d="m2.640625 20h21.359375v25h-21.359375zm0 0"/></clipPath><path d="m4.171875 22 17.535156-10.125v20.25zm0 0" fill="#800080"/><path d="m40.414062 22-17.539062-10.125v20.25zm0 0" fill="#fff"/><g clip-path="url(#a)"><path d="m106.414062 27-17.539062-10.125v20.25zm0 0" fill="none" stroke="#000" stroke-linecap="square" stroke-miterlimit="3.25" stroke-width=".5" transform="translate(-66 -5)"/></g><path d="m21.125 10.863281-17.539062-10.125v20.25zm0 0" fill="#fff"/><g clip-path="url(#b)"><path d="m87.125 15.863281-17.539062-10.125v20.25zm0 0" fill="none" stroke="#000" stroke-linecap="square" stroke-miterlimit="3.25" stroke-width=".5" transform="translate(-66 -5)"/></g><path d="m21.125 33.136719-17.539062-10.125v20.25zm0 0" fill="#fff"/><g clip-path="url(#c)"><path d="m87.125 38.136719-17.539062-10.125v20.25zm0 0" fill="none" stroke="#000" stroke-linecap="square" stroke-miterlimit="3.25" stroke-width=".5" transform="translate(-66 -5)"/></g></svg>